<svg id="svg" version="1.1" xmlns="http://www.w3.org/2000/svg" xmlns:xlink="http://www.w3.org/1999/xlink" width="400" height="400.65359477124184" viewBox="0, 0, 400,400.65359477124184"><g id="svgg"><path id="path0" d="M119.881 56.200 C 119.755 57.300,119.578 58.560,119.488 59.000 C 119.398 59.440,119.185 61.015,119.016 62.500 C 118.846 63.985,118.548 65.200,118.353 65.200 C 118.159 65.200,118.000 65.920,118.000 66.800 C 118.000 67.810,117.816 68.402,117.500 68.406 C 117.167 68.410,117.200 68.542,117.600 68.800 C 117.930 69.013,117.999 69.191,117.754 69.194 C 117.509 69.197,117.303 69.695,117.297 70.300 C 117.291 70.905,117.249 71.490,117.204 71.600 C 117.091 71.871,116.915 73.445,116.766 75.500 C 116.699 76.435,116.499 77.200,116.322 77.200 C 116.145 77.200,116.000 77.614,116.000 78.120 C 116.000 78.626,115.775 79.282,115.500 79.579 C 115.100 80.010,115.100 80.061,115.500 79.835 C 116.107 79.493,116.177 80.243,115.573 80.617 C 115.339 80.762,115.200 81.447,115.266 82.140 C 115.332 82.833,115.093 84.660,114.734 86.200 C 113.669 90.780,113.149 93.994,113.406 94.410 C 113.539 94.624,113.502 94.801,113.324 94.801 C 113.146 94.802,112.986 95.447,112.969 96.235 C 112.951 97.023,112.683 97.825,112.372 98.017 C 111.934 98.288,111.914 98.474,112.285 98.845 C 112.595 99.155,112.636 99.559,112.401 99.998 C 112.203 100.369,112.044 101.016,112.049 101.436 C 112.054 101.856,111.968 102.560,111.859 103.000 C 111.750 103.440,111.647 104.306,111.631 104.924 C 111.614 105.542,111.459 105.960,111.286 105.853 C 111.113 105.746,110.931 106.581,110.882 107.708 C 110.833 108.835,110.660 109.857,110.497 109.979 C 110.333 110.100,110.174 110.560,110.143 111.000 C 110.112 111.440,109.989 112.430,109.870 113.200 C 109.751 113.970,109.642 115.196,109.627 115.924 C 109.612 116.652,109.444 117.151,109.253 117.033 C 109.062 116.915,108.907 117.129,108.908 117.509 C 108.913 119.459,108.770 120.428,108.500 120.262 C 108.335 120.160,108.215 120.869,108.234 121.838 C 108.252 122.807,108.124 123.600,107.948 123.600 C 107.773 123.600,107.645 124.409,107.665 125.398 C 107.685 126.387,107.508 127.429,107.271 127.714 C 107.035 127.999,106.717 129.885,106.564 131.905 C 106.412 133.925,106.161 135.500,106.008 135.405 C 105.854 135.310,105.704 135.887,105.674 136.687 C 105.644 137.487,105.414 138.267,105.164 138.422 C 104.842 138.621,104.869 138.757,105.255 138.887 C 105.682 139.030,105.697 139.195,105.323 139.648 C 105.061 139.966,104.727 141.481,104.581 143.013 C 104.436 144.546,104.248 145.914,104.164 146.053 C 104.079 146.193,103.902 147.003,103.768 147.853 C 103.635 148.704,103.355 149.463,103.147 149.539 C 102.935 149.616,102.995 149.960,103.283 150.316 C 103.707 150.839,103.706 150.897,103.273 150.637 C 102.931 150.431,102.784 150.509,102.854 150.860 C 103.119 152.193,101.624 160.800,101.127 160.800 C 100.947 160.800,100.800 160.991,100.800 161.224 C 100.800 161.457,100.998 161.525,101.240 161.375 C 101.552 161.182,101.563 161.322,101.277 161.856 C 101.056 162.270,100.974 163.128,101.095 163.764 C 101.223 164.431,101.158 164.822,100.943 164.688 C 100.735 164.560,100.577 165.195,100.585 166.129 L 100.600 167.800 135.200 168.003 C 154.230 168.115,169.575 168.250,169.300 168.303 C 169.025 168.357,168.800 168.593,168.800 168.829 C 168.800 169.393,167.778 170.400,167.205 170.400 C 166.956 170.400,166.851 170.559,166.971 170.752 C 167.090 170.946,166.575 171.525,165.824 172.039 C 165.074 172.554,164.547 173.115,164.654 173.287 C 164.760 173.459,164.684 173.600,164.485 173.600 C 164.285 173.600,163.712 173.956,163.210 174.392 C 162.708 174.827,162.140 175.086,161.948 174.968 C 161.756 174.849,161.432 175.168,161.228 175.676 C 161.025 176.184,159.997 177.409,158.945 178.399 C 157.892 179.388,157.168 179.975,157.336 179.703 C 157.545 179.366,157.444 179.285,157.021 179.447 C 156.679 179.578,156.400 179.936,156.400 180.243 C 156.400 180.549,156.130 180.800,155.800 180.800 C 155.470 180.800,155.200 180.991,155.200 181.224 C 155.200 181.457,155.040 181.549,154.845 181.428 C 154.650 181.307,154.515 181.522,154.545 181.904 C 154.579 182.338,154.338 182.579,153.904 182.545 C 153.522 182.515,153.299 182.636,153.409 182.815 C 153.662 183.225,151.399 184.866,151.055 184.522 C 150.915 184.381,150.800 184.657,150.800 185.133 C 150.800 185.756,150.556 186.000,149.933 186.000 C 149.457 186.000,149.178 186.111,149.314 186.248 C 149.586 186.520,148.450 187.800,147.936 187.800 C 147.760 187.800,147.332 188.205,146.985 188.700 C 146.638 189.195,146.084 189.600,145.754 189.600 C 145.423 189.600,145.264 189.780,145.400 190.000 C 145.536 190.220,145.356 190.400,145.000 190.400 C 144.644 190.400,144.464 190.580,144.600 190.800 C 144.736 191.020,144.567 191.200,144.224 191.200 C 143.881 191.200,143.600 191.470,143.600 191.800 C 143.600 192.338,143.136 192.571,142.603 192.300 C 142.495 192.245,142.065 192.830,141.647 193.600 C 141.184 194.455,140.637 194.954,140.244 194.882 C 139.890 194.818,139.600 195.003,139.600 195.294 C 139.600 196.005,138.062 197.285,137.571 196.982 C 137.356 196.849,137.230 196.950,137.290 197.205 C 137.351 197.461,136.806 197.997,136.079 198.396 C 135.353 198.795,134.768 199.229,134.779 199.361 C 134.850 200.174,134.744 200.400,134.289 200.400 C 134.008 200.400,133.463 200.768,133.078 201.217 C 132.693 201.666,132.176 201.909,131.928 201.755 C 131.664 201.592,131.587 201.655,131.742 201.906 C 132.062 202.424,130.971 203.600,130.171 203.600 C 129.857 203.600,129.629 203.735,129.664 203.900 C 129.783 204.464,129.117 205.596,128.785 205.391 C 128.604 205.279,128.203 205.546,127.895 205.985 C 127.212 206.961,123.601 209.762,123.599 209.318 C 123.598 209.143,123.237 209.591,122.796 210.314 C 122.355 211.036,121.591 211.790,121.097 211.988 C 120.604 212.187,120.348 212.361,120.529 212.375 C 121.002 212.411,119.741 213.600,119.229 213.600 C 118.993 213.600,118.800 213.870,118.800 214.200 C 118.800 214.530,118.626 214.800,118.414 214.800 C 118.201 214.800,117.481 215.334,116.814 215.987 C 116.146 216.639,115.600 217.073,115.600 216.950 C 115.600 216.827,114.797 217.553,113.815 218.563 C 112.833 219.573,111.753 220.400,111.415 220.400 C 111.077 220.400,110.800 220.602,110.800 220.850 C 110.800 221.317,107.208 224.647,106.820 224.538 C 106.699 224.504,106.368 224.729,106.084 225.038 C 105.801 225.347,105.697 225.600,105.854 225.600 C 106.011 225.600,105.717 226.050,105.200 226.600 C 104.683 227.150,103.932 227.600,103.530 227.600 C 103.129 227.600,102.800 227.842,102.800 228.137 C 102.800 228.432,102.035 229.319,101.100 230.108 C 100.165 230.897,98.597 232.275,97.616 233.171 C 96.635 234.067,95.679 234.800,95.492 234.800 C 95.306 234.800,95.264 234.980,95.400 235.200 C 95.536 235.420,95.431 235.600,95.167 235.600 C 94.903 235.600,94.201 236.095,93.608 236.700 C 92.170 238.167,90.400 239.647,90.400 239.382 C 90.400 239.264,90.149 239.401,89.842 239.684 C 89.535 239.968,89.366 240.335,89.466 240.500 C 89.565 240.665,89.373 240.800,89.038 240.800 C 88.702 240.800,88.215 241.205,87.954 241.700 C 87.694 242.195,87.335 242.695,87.159 242.812 C 86.982 242.929,86.792 243.694,86.737 244.512 C 86.682 245.330,86.515 246.000,86.366 246.000 C 86.218 246.000,85.981 247.125,85.840 248.500 C 85.699 249.875,85.495 251.450,85.388 252.000 C 85.281 252.550,85.091 253.630,84.967 254.400 C 84.842 255.170,84.628 256.070,84.491 256.400 C 84.353 256.730,84.211 257.540,84.174 258.200 C 84.137 258.860,83.973 260.300,83.808 261.400 C 83.643 262.500,83.518 263.711,83.529 264.092 C 83.540 264.473,83.381 264.888,83.175 265.016 C 82.969 265.143,82.800 266.036,82.800 267.000 C 82.800 267.964,82.654 268.843,82.475 268.953 C 82.297 269.064,82.188 269.692,82.234 270.350 C 82.283 271.068,82.093 271.632,81.758 271.761 C 81.451 271.878,81.203 272.206,81.206 272.487 C 81.210 272.846,81.329 272.820,81.600 272.400 C 81.931 271.887,81.989 271.902,81.994 272.500 C 81.997 272.885,81.821 273.200,81.602 273.200 C 81.370 273.200,81.300 273.799,81.434 274.643 C 81.589 275.622,81.524 276.000,81.232 275.819 C 80.994 275.673,80.800 275.728,80.800 275.943 C 80.800 276.158,81.025 276.424,81.300 276.535 C 81.700 276.696,81.700 276.743,81.300 276.768 C 80.987 276.788,80.800 277.409,80.800 278.426 C 80.800 279.321,80.640 280.356,80.445 280.726 C 80.059 281.458,79.653 284.215,79.620 286.324 C 79.609 287.052,79.445 287.551,79.255 287.434 C 79.065 287.317,78.803 288.161,78.673 289.310 C 78.543 290.460,78.326 291.850,78.192 292.400 C 78.058 292.950,77.845 294.539,77.717 295.931 C 77.590 297.323,77.376 298.284,77.242 298.067 C 77.107 297.850,76.966 298.493,76.927 299.495 C 76.888 300.498,76.709 301.426,76.528 301.559 C 76.348 301.692,76.183 302.430,76.162 303.200 C 76.141 303.970,76.020 305.050,75.892 305.600 C 75.764 306.150,75.646 307.196,75.630 307.924 C 75.608 308.871,75.458 309.162,75.100 308.947 C 74.760 308.743,74.776 308.863,75.149 309.323 C 75.451 309.695,75.541 310.000,75.349 310.000 C 75.157 310.000,74.974 310.451,74.942 311.002 C 74.910 311.552,74.751 312.317,74.587 312.701 C 74.423 313.086,74.266 314.153,74.238 315.074 C 74.209 315.994,74.054 316.879,73.893 317.040 C 73.732 317.202,73.600 318.304,73.600 319.490 C 73.600 320.817,73.447 321.553,73.203 321.402 C 72.982 321.265,72.813 321.566,72.823 322.078 C 72.863 324.122,72.269 328.400,71.945 328.400 C 71.755 328.400,71.600 329.300,71.600 330.400 C 71.600 331.546,71.418 332.400,71.175 332.400 C 70.941 332.400,70.793 332.715,70.847 333.100 C 70.900 333.485,70.788 334.970,70.598 336.400 C 70.407 337.830,70.285 339.135,70.326 339.300 C 70.367 339.465,70.220 339.600,70.000 339.600 C 69.780 339.600,69.600 340.305,69.600 341.167 C 69.600 342.046,69.381 342.822,69.100 342.935 C 68.700 343.096,68.700 343.143,69.100 343.168 C 69.375 343.186,69.600 343.455,69.600 343.767 C 69.600 344.078,69.375 344.416,69.100 344.517 C 68.058 344.901,70.912 345.163,80.600 345.574 C 91.907 346.054,181.053 346.162,181.341 345.696 C 181.443 345.531,182.893 345.487,184.563 345.598 C 186.233 345.709,187.645 345.670,187.700 345.512 C 187.755 345.354,190.725 345.204,194.300 345.179 C 197.875 345.154,200.800 344.988,200.800 344.810 C 200.800 344.633,202.105 344.391,203.700 344.273 C 205.295 344.156,207.230 343.960,208.000 343.839 C 208.770 343.718,210.345 343.502,211.500 343.359 C 212.655 343.215,213.600 342.941,213.600 342.749 C 213.600 342.557,214.275 342.392,215.100 342.382 C 215.925 342.373,217.320 342.105,218.200 341.788 C 219.080 341.471,220.385 341.209,221.100 341.206 C 221.815 341.203,222.400 341.026,222.400 340.813 C 222.400 340.599,222.652 340.522,222.960 340.640 C 223.267 340.758,223.650 340.643,223.810 340.385 C 224.025 340.036,224.188 340.054,224.444 340.457 C 224.697 340.857,224.789 340.868,224.794 340.500 C 224.797 340.225,225.072 340.000,225.405 340.000 C 225.738 340.000,226.323 339.833,226.705 339.629 C 227.908 338.987,228.969 338.672,229.900 338.681 C 230.395 338.686,230.800 338.564,230.800 338.409 C 230.800 338.255,231.565 337.887,232.500 337.592 C 233.435 337.297,234.425 336.886,234.700 336.679 C 234.975 336.472,235.200 336.436,235.200 336.600 C 235.200 336.764,235.505 336.651,235.877 336.349 C 236.337 335.976,236.457 335.960,236.253 336.300 C 236.088 336.575,236.124 336.800,236.334 336.800 C 236.543 336.800,236.817 336.533,236.942 336.207 C 237.072 335.869,237.435 335.715,237.785 335.850 C 238.123 335.979,238.400 335.886,238.400 335.643 C 238.400 335.399,238.760 335.200,239.200 335.200 C 239.640 335.200,240.000 335.009,240.000 334.776 C 240.000 334.543,240.181 334.465,240.403 334.602 C 240.624 334.739,241.299 334.504,241.903 334.080 C 242.506 333.656,243.316 333.359,243.702 333.420 C 244.088 333.480,244.302 333.366,244.178 333.165 C 244.054 332.964,244.233 332.800,244.576 332.800 C 244.919 332.800,245.200 332.620,245.200 332.400 C 245.200 332.180,245.449 332.000,245.752 332.000 C 246.056 332.000,248.261 331.009,250.652 329.797 C 253.044 328.586,255.270 327.551,255.600 327.497 C 255.930 327.444,256.529 327.040,256.930 326.600 C 257.332 326.160,257.526 326.070,257.362 326.400 C 257.140 326.845,257.270 326.819,257.863 326.300 C 258.303 325.915,258.893 325.600,259.174 325.600 C 259.455 325.600,260.047 325.139,260.491 324.576 C 260.951 323.991,261.542 323.646,261.869 323.771 C 262.184 323.892,262.344 323.833,262.225 323.641 C 262.042 323.344,262.996 322.845,264.115 322.654 C 264.288 322.624,264.558 322.402,264.715 322.160 C 265.079 321.598,266.897 320.600,267.330 320.725 C 267.511 320.777,267.538 320.623,267.389 320.383 C 267.237 320.136,267.484 319.851,267.960 319.726 C 268.422 319.606,268.800 319.337,268.800 319.130 C 268.800 318.922,268.620 318.864,268.400 319.000 C 268.180 319.136,268.000 319.057,268.000 318.824 C 268.000 318.591,268.354 318.400,268.787 318.400 C 269.221 318.400,269.520 318.625,269.453 318.900 C 269.386 319.175,269.407 319.264,269.500 319.098 C 269.592 318.931,269.861 318.914,270.096 319.059 C 270.357 319.221,270.406 319.133,270.222 318.835 C 269.872 318.269,271.180 317.154,271.796 317.494 C 272.018 317.617,271.987 317.487,271.726 317.204 C 271.342 316.789,271.127 316.816,270.597 317.346 C 268.741 319.202,268.800 320.376,268.800 281.776 C 268.800 252.926,268.698 245.605,268.300 245.811 C 268.025 245.953,268.186 245.739,268.657 245.335 C 269.291 244.791,269.428 244.392,269.185 243.800 C 268.876 243.049,268.855 243.046,268.828 243.756 C 268.813 244.172,268.485 244.746,268.100 245.032 C 267.498 245.478,267.474 245.672,267.925 246.411 C 268.410 247.204,268.384 247.249,267.575 246.992 C 267.012 246.813,266.791 246.862,266.956 247.130 C 267.098 247.358,267.030 247.658,266.807 247.796 C 266.583 247.934,266.400 248.476,266.400 249.000 C 266.400 249.524,266.220 250.064,265.999 250.201 C 265.530 250.490,263.806 254.059,263.921 254.500 C 263.965 254.665,263.820 254.800,263.600 254.800 C 263.380 254.800,263.200 254.988,263.200 255.218 C 263.200 255.448,262.750 256.086,262.200 256.636 C 261.198 257.638,260.874 258.249,261.573 257.817 C 262.158 257.455,260.926 259.681,259.871 260.893 C 259.347 261.494,258.773 261.854,258.595 261.693 C 258.417 261.532,258.397 261.618,258.550 261.885 C 258.704 262.152,258.480 262.720,258.054 263.146 C 257.628 263.572,257.158 264.301,257.011 264.766 C 256.863 265.231,256.575 265.508,256.371 265.382 C 256.167 265.256,256.000 265.355,256.000 265.602 C 256.000 265.850,255.109 266.920,254.021 267.980 C 252.932 269.040,252.167 270.047,252.321 270.218 C 252.474 270.388,252.245 270.399,251.812 270.243 C 251.379 270.086,251.142 270.075,251.285 270.219 C 251.539 270.472,249.415 272.800,248.930 272.800 C 248.797 272.800,248.430 273.115,248.114 273.500 C 247.799 273.885,247.672 273.947,247.832 273.638 C 248.019 273.278,247.964 273.175,247.679 273.351 C 247.435 273.502,247.317 273.845,247.418 274.113 C 247.631 274.681,245.679 275.696,245.082 275.327 C 244.859 275.189,244.796 275.270,244.943 275.508 C 245.224 275.962,243.067 277.734,242.691 277.358 C 242.571 277.238,242.360 277.496,242.222 277.932 C 242.078 278.385,241.676 278.681,241.285 278.622 C 240.908 278.565,240.285 278.880,239.900 279.321 C 239.402 279.891,239.192 279.961,239.172 279.561 C 239.156 279.251,239.004 279.358,238.832 279.800 C 238.660 280.240,238.358 280.624,238.160 280.654 C 236.955 280.834,236.000 281.372,236.000 281.870 C 236.000 282.188,235.820 282.336,235.600 282.200 C 235.380 282.064,235.200 282.127,235.200 282.341 C 235.200 282.555,234.885 282.677,234.500 282.613 C 234.115 282.549,233.433 282.831,232.985 283.238 C 232.537 283.646,231.758 284.042,231.253 284.119 C 230.747 284.196,230.214 284.426,230.067 284.630 C 229.920 284.833,229.440 285.061,229.000 285.136 C 228.560 285.211,227.916 285.525,227.570 285.835 C 227.223 286.144,226.471 286.436,225.899 286.484 C 225.326 286.531,224.935 286.695,225.029 286.847 C 225.124 287.000,224.211 287.437,223.001 287.817 C 221.790 288.198,220.800 288.665,220.800 288.855 C 220.800 289.045,220.665 289.164,220.500 289.119 C 219.924 288.964,217.019 289.673,215.935 290.234 C 215.334 290.544,214.478 290.854,214.032 290.922 C 213.586 290.990,213.096 291.171,212.944 291.323 C 212.791 291.475,212.077 291.600,211.357 291.600 C 210.637 291.600,209.936 291.780,209.800 292.000 C 209.664 292.220,209.034 292.400,208.400 292.400 C 207.766 292.400,207.151 292.556,207.033 292.746 C 206.916 292.936,206.410 293.066,205.910 293.034 C 205.409 293.003,204.868 293.162,204.706 293.388 C 204.521 293.648,204.410 293.605,204.406 293.273 C 204.402 292.914,203.993 293.035,203.128 293.651 C 202.428 294.150,201.989 294.342,202.151 294.079 C 202.314 293.815,202.257 293.600,202.024 293.600 C 201.791 293.600,201.600 293.742,201.600 293.915 C 201.600 294.088,201.022 294.274,200.316 294.328 C 199.609 294.382,198.934 294.557,198.816 294.719 C 198.697 294.880,197.925 295.006,197.100 295.000 C 196.275 294.994,195.600 295.126,195.600 295.294 C 195.600 295.462,195.465 295.579,195.300 295.553 C 193.941 295.338,191.594 295.667,191.825 296.040 C 192.022 296.359,191.873 296.360,191.281 296.043 C 190.832 295.803,190.405 295.765,190.332 295.960 C 190.260 296.154,188.933 296.426,187.384 296.564 C 185.835 296.701,184.125 296.909,183.584 297.026 C 181.501 297.477,179.716 297.675,177.514 297.698 C 176.257 297.711,175.305 297.846,175.398 297.997 C 175.492 298.149,173.284 298.224,170.491 298.164 C 167.698 298.104,165.312 298.219,165.188 298.419 C 165.060 298.627,159.381 298.777,151.981 298.768 C 136.914 298.750,137.600 298.772,137.600 298.307 C 137.600 298.109,136.823 298.016,135.874 298.101 C 134.140 298.256,133.580 297.336,134.467 295.787 C 134.589 295.574,134.716 294.500,134.751 293.400 C 134.785 292.300,134.990 291.340,135.206 291.267 C 135.423 291.193,135.600 290.418,135.600 289.543 C 135.600 288.377,135.733 288.033,136.100 288.253 C 136.475 288.478,136.470 288.393,136.081 287.912 C 135.701 287.444,135.683 287.196,136.015 286.990 C 136.265 286.836,136.381 286.370,136.272 285.955 C 136.164 285.540,136.199 285.200,136.350 285.200 C 136.502 285.200,136.663 284.356,136.708 283.325 C 136.752 282.294,136.972 281.268,137.195 281.045 C 137.418 280.822,137.600 279.765,137.600 278.696 C 137.600 277.248,137.727 276.829,138.100 277.053 C 138.483 277.284,138.495 277.219,138.147 276.777 C 137.809 276.346,137.818 275.723,138.181 274.317 C 138.449 273.282,138.532 272.518,138.367 272.620 C 138.106 272.781,138.291 272.046,139.126 269.600 C 139.239 269.270,139.359 268.910,139.394 268.800 C 139.429 268.690,139.601 267.340,139.778 265.800 C 139.954 264.260,140.204 262.821,140.333 262.603 C 140.461 262.385,140.635 261.395,140.718 260.403 C 140.801 259.411,141.044 258.388,141.259 258.130 C 141.473 257.871,141.609 257.421,141.561 257.130 C 141.422 256.285,142.035 255.200,142.651 255.200 C 142.963 255.200,143.422 254.750,143.673 254.200 C 143.923 253.650,144.330 253.200,144.576 253.200 C 144.822 253.200,145.276 252.850,145.585 252.421 C 145.893 251.993,146.297 251.737,146.483 251.851 C 146.668 251.966,146.770 251.878,146.710 251.657 C 146.574 251.157,153.450 244.383,153.769 244.703 C 153.896 244.829,154.000 244.727,154.000 244.474 C 154.000 243.699,156.709 241.139,156.935 241.700 C 157.056 242.000,157.149 241.921,157.168 241.503 C 157.210 240.588,159.574 238.343,160.151 238.672 C 160.398 238.813,160.480 238.794,160.332 238.630 C 159.942 238.195,161.640 236.382,162.160 236.678 C 162.402 236.816,162.468 236.783,162.307 236.605 C 162.009 236.275,163.443 234.800,164.061 234.800 C 164.248 234.800,164.355 234.642,164.300 234.448 C 164.171 233.994,166.279 232.012,166.575 232.309 C 166.699 232.432,166.800 232.245,166.800 231.894 C 166.800 231.542,167.151 231.143,167.580 231.006 C 168.008 230.870,168.467 230.417,168.600 230.000 C 168.733 229.583,169.205 229.125,169.651 228.984 C 170.096 228.843,170.373 228.640,170.266 228.533 C 170.000 228.266,173.884 224.400,174.418 224.400 C 174.654 224.400,174.736 224.220,174.600 224.000 C 174.464 223.780,174.501 223.600,174.682 223.600 C 174.864 223.600,177.458 221.215,180.447 218.300 C 183.436 215.385,186.258 212.743,186.717 212.429 C 187.177 212.115,187.518 211.755,187.476 211.629 C 187.434 211.503,187.561 211.310,187.759 211.200 C 188.613 210.723,191.440 207.773,191.303 207.500 C 191.220 207.335,191.388 207.199,191.676 207.199 C 191.964 207.198,192.553 206.671,192.984 206.027 C 193.416 205.383,193.894 204.889,194.048 204.928 C 194.389 205.016,196.800 202.387,196.800 201.928 C 196.800 201.748,196.993 201.600,197.229 201.600 C 197.466 201.600,198.535 200.745,199.605 199.700 C 200.676 198.655,201.804 197.594,202.113 197.343 C 202.422 197.091,203.018 196.459,203.437 195.937 C 203.857 195.416,204.723 194.584,205.362 194.088 C 206.001 193.593,206.901 192.695,207.362 192.094 C 207.823 191.492,208.402 191.000,208.648 191.000 C 208.895 191.000,209.776 190.190,210.607 189.200 C 211.438 188.210,212.285 187.449,212.489 187.510 C 212.693 187.570,212.761 187.460,212.640 187.264 C 212.366 186.822,215.995 183.751,216.576 183.933 C 216.809 184.007,216.877 183.944,216.727 183.794 C 216.387 183.454,219.284 180.427,219.710 180.677 C 219.880 180.777,219.970 180.701,219.910 180.506 C 219.740 179.960,229.943 170.042,230.152 170.551 C 230.254 170.798,230.351 170.700,230.368 170.334 C 230.398 169.702,232.141 167.700,233.791 166.400 C 234.391 165.928,234.481 165.920,234.215 166.362 C 233.985 166.743,234.025 166.832,234.338 166.638 C 234.592 166.481,234.800 166.091,234.800 165.771 C 234.800 165.112,237.158 162.830,237.857 162.812 C 238.315 162.800,238.983 161.664,238.864 161.100 C 238.829 160.935,239.032 160.800,239.315 160.800 C 239.599 160.800,240.980 159.548,242.383 158.018 C 243.787 156.488,245.085 155.329,245.268 155.442 C 245.450 155.555,245.601 155.412,245.601 155.124 C 245.602 154.836,246.141 154.240,246.800 153.800 C 247.459 153.360,247.998 152.775,247.999 152.500 C 247.999 152.225,248.151 152.000,248.335 152.000 C 248.519 152.000,250.038 150.650,251.709 149.000 C 253.381 147.350,254.951 146.000,255.198 146.000 C 255.445 146.000,255.575 145.865,255.487 145.700 C 255.277 145.307,256.663 143.996,256.967 144.300 C 257.095 144.428,257.200 144.261,257.200 143.929 C 257.200 143.596,257.591 142.981,258.069 142.562 C 258.619 142.079,258.814 142.020,258.600 142.400 C 258.415 142.730,258.793 142.460,259.440 141.800 C 260.087 141.140,260.598 140.555,260.576 140.501 C 260.462 140.223,264.054 136.800,264.460 136.800 C 264.720 136.800,264.836 136.703,264.717 136.584 C 264.447 136.313,266.901 133.725,267.271 133.891 C 267.420 133.957,267.657 133.649,267.798 133.206 C 267.939 132.763,268.241 132.400,268.470 132.400 C 268.698 132.400,268.784 132.135,268.659 131.811 C 268.535 131.485,268.740 131.042,269.117 130.823 C 269.506 130.596,269.585 130.419,269.300 130.412 C 268.930 130.403,268.800 129.210,268.800 125.814 C 268.800 121.689,268.722 121.186,268.026 120.814 C 267.505 120.535,250.697 120.400,216.426 120.400 L 165.600 120.400 165.600 118.776 C 165.600 117.883,165.735 117.235,165.900 117.336 C 166.065 117.437,166.242 116.952,166.292 116.260 C 166.343 115.567,166.464 114.640,166.562 114.200 C 166.659 113.760,166.753 112.534,166.769 111.476 C 166.788 110.303,166.956 109.649,167.200 109.800 C 167.446 109.952,167.600 109.293,167.600 108.090 C 167.600 107.014,167.735 105.998,167.900 105.832 C 168.065 105.666,168.216 105.141,168.236 104.665 C 168.319 102.646,168.930 99.600,169.252 99.600 C 169.443 99.600,169.600 99.409,169.600 99.176 C 169.600 98.943,169.375 98.880,169.100 99.035 C 168.700 99.261,168.700 99.210,169.100 98.779 C 169.375 98.482,169.600 97.676,169.600 96.987 C 169.600 96.297,169.735 95.598,169.900 95.434 C 170.065 95.269,170.231 94.564,170.269 93.867 C 170.404 91.363,170.882 88.196,171.154 88.000 C 171.306 87.890,171.462 87.170,171.501 86.400 C 171.594 84.520,171.965 81.938,172.248 81.200 C 172.374 80.870,172.555 80.060,172.650 79.400 C 172.745 78.740,172.944 77.750,173.092 77.200 C 173.240 76.650,173.411 75.660,173.470 75.000 C 173.530 74.340,173.659 73.350,173.756 72.800 C 173.854 72.250,173.948 71.294,173.967 70.676 C 173.985 70.058,174.142 69.641,174.316 69.748 C 174.490 69.856,174.658 69.191,174.689 68.272 C 174.751 66.421,174.952 65.264,175.562 63.255 C 175.786 62.515,175.955 61.795,175.938 61.655 C 175.785 60.453,176.073 58.798,176.400 59.000 C 176.620 59.136,176.800 59.057,176.800 58.824 C 176.800 58.591,176.575 58.397,176.300 58.394 C 175.955 58.390,175.936 58.297,176.239 58.094 C 176.708 57.781,176.849 56.707,176.592 55.400 C 176.436 54.607,176.196 54.602,148.417 54.800 C 129.920 54.932,120.351 54.864,120.255 54.600 C 120.176 54.380,120.007 55.100,119.881 56.200 M265.614 126.773 C 265.387 127.198,264.850 127.657,264.421 127.793 C 263.987 127.931,263.731 128.277,263.845 128.573 C 263.971 128.902,263.580 129.268,262.818 129.534 C 262.141 129.770,261.635 130.196,261.694 130.481 C 261.752 130.767,261.592 130.961,261.338 130.913 C 261.084 130.865,260.634 131.124,260.338 131.490 C 259.878 132.057,259.887 132.108,260.400 131.842 C 260.730 131.671,260.555 131.892,260.011 132.334 C 259.467 132.776,258.902 133.063,258.754 132.971 C 258.606 132.880,258.371 133.262,258.231 133.819 C 258.091 134.377,257.802 134.725,257.588 134.593 C 257.375 134.461,257.200 134.554,257.200 134.800 C 257.200 135.046,257.040 135.149,256.845 135.028 C 256.650 134.907,256.515 135.122,256.545 135.504 C 256.575 135.887,256.375 136.155,256.100 136.100 C 255.825 136.045,255.600 136.152,255.600 136.339 C 255.600 137.052,254.029 138.465,253.559 138.175 C 253.271 137.997,253.180 138.044,253.334 138.294 C 253.476 138.523,252.874 139.451,251.996 140.356 C 251.118 141.261,250.400 141.912,250.400 141.804 C 250.400 141.696,250.049 141.908,249.620 142.275 C 249.192 142.642,248.951 143.121,249.086 143.339 C 249.232 143.576,249.054 143.629,248.645 143.473 C 248.267 143.328,248.051 143.360,248.165 143.544 C 248.279 143.727,247.748 144.430,246.986 145.105 C 246.224 145.780,245.600 146.557,245.600 146.833 C 245.600 147.108,245.502 147.235,245.382 147.115 C 245.262 146.995,243.876 148.180,242.302 149.748 C 240.729 151.317,239.308 152.559,239.145 152.508 C 238.982 152.458,238.736 152.773,238.597 153.208 C 238.459 153.644,238.178 154.000,237.973 154.000 C 237.768 154.000,237.600 154.270,237.600 154.600 C 237.600 154.930,237.349 155.200,237.043 155.200 C 236.736 155.200,236.382 155.470,236.255 155.800 C 236.129 156.130,235.749 156.400,235.413 156.400 C 235.076 156.400,234.845 156.542,234.900 156.717 C 235.070 157.255,230.353 161.618,229.902 161.339 C 229.666 161.194,229.592 161.264,229.736 161.496 C 229.879 161.727,229.701 162.029,229.340 162.168 C 228.980 162.306,228.791 162.525,228.921 162.654 C 229.245 162.978,226.738 165.032,226.219 164.867 C 225.988 164.793,225.924 164.857,226.075 165.009 C 226.227 165.160,225.885 165.715,225.317 166.242 C 224.748 166.769,224.407 167.200,224.557 167.200 C 224.708 167.200,224.599 167.451,224.316 167.758 C 224.032 168.065,223.710 168.273,223.600 168.221 C 223.490 168.169,222.725 168.818,221.900 169.663 C 221.075 170.509,220.503 171.200,220.628 171.200 C 220.754 171.200,220.192 171.827,219.380 172.593 C 218.567 173.360,217.716 173.872,217.489 173.732 C 217.262 173.591,217.185 173.652,217.318 173.867 C 217.450 174.082,217.208 174.558,216.780 174.925 C 216.351 175.292,215.989 175.459,215.975 175.296 C 215.961 175.133,215.787 175.405,215.588 175.900 C 215.389 176.395,214.971 176.800,214.660 176.800 C 214.348 176.800,213.994 177.178,213.874 177.640 C 213.734 178.175,213.476 178.371,213.165 178.178 C 212.874 177.999,212.779 178.043,212.931 178.288 C 213.071 178.514,212.749 179.027,212.216 179.427 C 211.684 179.827,211.330 180.286,211.430 180.448 C 211.530 180.610,211.230 180.864,210.763 181.012 C 209.810 181.314,208.400 182.424,208.400 182.871 C 208.400 183.204,206.474 185.200,206.153 185.200 C 205.861 185.200,205.086 186.082,204.556 187.017 C 204.312 187.448,203.915 187.800,203.673 187.800 C 203.431 187.800,202.768 188.430,202.200 189.200 C 201.632 189.970,201.050 190.600,200.908 190.600 C 200.765 190.600,199.424 191.815,197.927 193.300 C 196.430 194.785,195.318 196.000,195.457 196.000 C 195.595 196.000,195.237 196.370,194.662 196.823 C 192.946 198.172,191.282 199.949,191.515 200.182 C 191.635 200.302,191.530 200.400,191.282 200.400 C 191.034 200.400,189.669 201.568,188.248 202.996 C 186.669 204.583,185.586 205.400,185.464 205.096 C 185.353 204.823,185.246 204.960,185.225 205.400 C 185.177 206.389,183.547 207.989,182.544 208.032 C 182.081 208.051,181.998 208.143,182.324 208.273 C 182.970 208.532,181.791 210.000,180.938 210.000 C 180.642 210.000,180.445 210.160,180.500 210.355 C 180.555 210.551,179.915 211.259,179.079 211.928 C 178.242 212.598,177.522 213.293,177.479 213.473 C 177.435 213.653,177.265 213.755,177.100 213.700 C 176.935 213.645,176.800 213.889,176.800 214.243 C 176.800 214.659,176.582 214.802,176.179 214.647 C 175.823 214.511,175.663 214.578,175.803 214.805 C 175.937 215.022,175.827 215.200,175.557 215.200 C 175.287 215.200,175.176 215.309,175.309 215.442 C 175.649 215.782,173.576 217.632,173.150 217.369 C 172.957 217.250,172.800 217.343,172.800 217.576 C 172.800 217.809,172.800 218.090,172.800 218.200 C 172.800 218.622,171.240 219.933,170.434 220.189 C 169.969 220.337,169.685 220.614,169.803 220.805 C 169.921 220.996,169.384 221.658,168.609 222.276 C 167.834 222.894,167.200 223.655,167.200 223.967 C 167.200 224.278,167.095 224.428,166.967 224.300 C 166.753 224.087,165.833 224.768,164.660 226.006 C 161.145 229.717,157.963 232.800,157.648 232.800 C 157.431 232.800,157.139 233.163,156.998 233.606 C 156.857 234.049,156.575 234.308,156.371 234.182 C 156.167 234.056,156.000 234.152,156.000 234.395 C 156.000 234.798,154.314 236.585,153.658 236.878 C 153.508 236.945,152.986 237.516,152.498 238.148 C 152.009 238.779,151.032 239.605,150.326 239.984 C 149.619 240.363,148.852 241.009,148.621 241.420 C 147.974 242.568,147.321 243.188,147.048 242.914 C 146.911 242.778,146.800 242.977,146.800 243.357 C 146.800 243.737,146.652 243.956,146.471 243.844 C 146.291 243.732,145.842 243.992,145.475 244.420 C 145.108 244.849,144.915 245.200,145.046 245.200 C 145.177 245.200,144.681 245.777,143.942 246.483 C 143.204 247.188,142.452 247.724,142.270 247.673 C 142.089 247.622,142.043 247.746,142.168 247.948 C 142.430 248.372,139.694 250.655,139.122 250.490 C 138.912 250.430,138.850 250.558,138.985 250.775 C 139.331 251.336,137.671 252.887,137.085 252.550 C 136.818 252.397,136.716 252.401,136.857 252.559 C 136.998 252.718,136.779 253.764,136.369 254.885 C 135.959 256.007,135.573 257.706,135.512 258.662 C 135.450 259.617,135.298 260.400,135.174 260.400 C 135.050 260.400,134.970 260.985,134.995 261.700 C 135.021 262.415,134.900 263.408,134.728 263.907 C 134.334 265.046,133.066 272.754,133.115 273.709 C 133.135 274.098,133.011 274.330,132.839 274.224 C 132.667 274.118,132.493 274.956,132.453 276.086 C 132.413 277.217,132.205 278.354,131.990 278.612 C 131.775 278.871,131.597 279.514,131.595 280.041 C 131.583 282.276,131.097 284.784,130.720 284.551 C 130.471 284.397,130.479 284.601,130.741 285.090 C 130.977 285.532,131.011 286.036,130.819 286.239 C 130.629 286.437,130.373 287.230,130.249 288.000 C 130.124 288.770,129.845 290.210,129.629 291.200 C 129.412 292.190,129.227 293.765,129.217 294.700 C 129.208 295.635,129.065 296.401,128.900 296.402 C 128.735 296.403,128.566 297.060,128.524 297.863 C 128.482 298.666,128.254 299.443,128.017 299.590 C 127.776 299.738,127.633 300.731,127.693 301.828 L 127.800 303.800 130.583 303.920 C 132.114 303.986,133.554 304.183,133.783 304.357 C 134.345 304.784,173.200 304.959,173.200 304.534 C 173.200 304.351,173.785 304.196,174.500 304.192 C 175.215 304.188,177.690 304.040,180.000 303.863 C 182.310 303.687,184.830 303.511,185.600 303.471 C 186.370 303.432,187.226 303.187,187.503 302.926 C 187.802 302.643,188.570 302.543,189.400 302.677 C 190.190 302.806,191.029 302.708,191.338 302.451 C 191.638 302.202,192.630 301.970,193.542 301.934 C 194.454 301.898,195.200 301.706,195.200 301.507 C 195.200 301.309,195.545 301.256,195.966 301.389 C 196.388 301.523,196.830 301.475,196.949 301.282 C 197.069 301.089,197.806 300.907,198.587 300.877 C 199.368 300.848,200.354 300.639,200.778 300.412 C 201.201 300.185,202.089 300.000,202.750 300.000 C 203.412 300.000,204.056 299.832,204.183 299.628 C 204.309 299.423,204.889 299.342,205.471 299.447 C 206.053 299.553,206.648 299.445,206.795 299.209 C 206.941 298.972,207.614 298.739,208.291 298.689 C 208.968 298.640,209.439 298.465,209.337 298.300 C 209.236 298.135,209.568 297.996,210.076 297.992 C 210.584 297.987,212.260 297.538,213.800 296.993 C 217.074 295.836,216.930 295.862,216.547 296.500 C 216.348 296.831,216.479 296.812,216.933 296.443 C 217.310 296.137,217.730 295.996,217.865 296.131 C 217.999 296.266,218.580 296.047,219.155 295.645 C 219.730 295.243,220.740 294.795,221.400 294.650 C 222.778 294.346,223.127 294.239,224.117 293.811 C 225.681 293.136,225.104 293.968,223.011 295.410 C 221.795 296.248,220.800 297.094,220.800 297.290 C 220.800 297.487,220.619 297.535,220.397 297.398 C 220.176 297.261,219.887 297.430,219.755 297.772 C 219.624 298.115,219.374 298.307,219.200 298.200 C 219.026 298.093,218.776 298.285,218.645 298.628 C 218.513 298.970,218.257 299.159,218.076 299.047 C 217.894 298.935,217.500 299.184,217.200 299.600 C 216.900 300.016,216.507 300.266,216.327 300.155 C 216.147 300.044,216.000 300.147,216.000 300.385 C 216.000 300.623,215.505 301.037,214.900 301.305 C 214.295 301.574,213.352 302.200,212.804 302.697 C 212.256 303.194,211.601 303.600,211.347 303.600 C 211.093 303.600,210.782 303.870,210.655 304.200 C 210.529 304.530,210.149 304.800,209.813 304.800 C 209.476 304.800,209.200 305.100,209.200 305.467 C 209.200 305.833,209.089 306.022,208.952 305.886 C 208.816 305.750,208.476 305.855,208.197 306.119 C 207.917 306.384,207.185 306.960,206.570 307.400 C 205.955 307.840,204.964 308.605,204.368 309.100 C 203.772 309.595,203.085 310.000,202.842 310.000 C 202.599 310.000,202.400 310.180,202.400 310.400 C 202.400 310.620,202.083 310.800,201.696 310.800 C 201.308 310.800,200.554 311.329,200.019 311.977 C 199.485 312.624,198.921 313.075,198.766 312.979 C 198.611 312.883,198.381 313.074,198.254 313.402 C 198.128 313.731,197.739 314.000,197.389 314.000 C 197.009 314.000,196.868 314.186,197.039 314.463 C 197.235 314.780,197.053 314.855,196.462 314.700 C 195.987 314.576,195.700 314.638,195.823 314.837 C 196.031 315.173,195.511 315.332,194.964 315.100 C 194.834 315.045,194.468 315.495,194.151 316.100 C 193.834 316.705,193.384 317.200,193.151 317.200 C 192.919 317.200,192.384 317.605,191.963 318.100 C 191.260 318.928,191.216 318.936,191.412 318.200 C 191.589 317.533,191.547 317.548,191.155 318.291 C 190.897 318.781,190.351 319.288,189.943 319.418 C 189.534 319.548,189.200 319.832,189.200 320.051 C 189.200 320.269,189.031 320.343,188.825 320.215 C 188.618 320.088,188.264 320.302,188.037 320.692 C 187.713 321.248,187.618 321.272,187.596 320.800 C 187.580 320.463,187.307 320.682,186.971 321.300 C 186.438 322.283,186.186 322.453,185.374 322.379 C 185.249 322.368,184.786 322.818,184.345 323.379 C 183.903 323.941,183.369 324.400,183.157 324.400 C 182.945 324.400,182.322 324.805,181.772 325.300 C 179.505 327.342,179.257 327.523,179.033 327.300 C 178.905 327.172,178.800 327.265,178.800 327.507 C 178.800 327.750,178.175 328.174,177.410 328.451 C 176.646 328.727,176.105 329.038,176.208 329.141 C 176.557 329.490,173.590 331.241,173.131 330.957 C 172.863 330.792,172.786 330.854,172.943 331.108 C 173.092 331.349,172.493 332.041,171.590 332.670 C 170.699 333.292,169.593 334.111,169.133 334.492 C 168.673 334.872,168.136 335.084,167.938 334.962 C 167.741 334.840,167.630 334.979,167.690 335.270 C 167.751 335.562,167.575 335.755,167.300 335.700 C 167.025 335.645,166.800 335.780,166.800 336.000 C 166.800 336.220,166.530 336.400,166.200 336.400 C 165.870 336.400,165.600 336.580,165.600 336.800 C 165.600 337.020,165.319 337.200,164.976 337.200 C 164.633 337.200,164.464 337.380,164.600 337.600 C 164.736 337.820,164.632 338.000,164.369 338.000 C 164.107 338.000,163.435 338.493,162.877 339.095 C 162.251 339.771,161.801 340.004,161.702 339.706 C 161.577 339.331,161.424 339.332,161.013 339.712 C 160.722 339.980,160.566 340.335,160.666 340.500 C 160.765 340.665,141.500 340.800,117.853 340.800 C 77.225 340.800,74.851 340.761,74.723 340.100 C 74.508 338.998,74.853 336.786,75.205 337.003 C 75.380 337.111,75.530 336.525,75.539 335.700 C 75.564 333.269,76.072 329.433,76.428 328.985 C 76.609 328.756,76.796 327.766,76.844 326.785 C 76.891 325.803,77.033 324.820,77.159 324.600 C 77.285 324.380,77.413 323.705,77.444 323.100 C 77.475 322.495,77.545 321.955,77.601 321.900 C 77.657 321.845,77.747 321.440,77.803 321.000 C 78.100 318.647,79.027 314.962,79.387 314.706 C 79.645 314.523,79.594 314.410,79.251 314.406 C 78.873 314.402,78.822 314.245,79.088 313.900 C 79.301 313.625,79.439 312.865,79.394 312.210 C 79.294 310.720,79.941 308.295,80.545 307.906 C 80.869 307.697,80.852 307.610,80.486 307.606 C 80.112 307.602,80.079 307.400,80.363 306.869 C 80.578 306.467,80.879 304.757,81.032 303.069 C 81.185 301.381,81.427 300.000,81.569 300.000 C 81.712 300.000,81.843 299.685,81.860 299.300 C 81.974 296.758,82.239 294.901,82.467 295.042 C 82.614 295.132,82.684 294.580,82.624 293.815 C 82.563 293.049,82.668 292.518,82.857 292.635 C 83.045 292.752,83.200 291.937,83.200 290.824 C 83.200 289.711,83.350 288.800,83.534 288.800 C 83.718 288.800,83.896 288.035,83.929 287.100 C 83.986 285.508,84.726 281.198,85.612 277.294 C 85.826 276.356,86.003 275.096,86.006 274.494 C 86.010 273.727,86.115 273.562,86.357 273.944 C 86.577 274.292,86.668 273.932,86.608 272.944 C 86.557 272.095,86.660 271.114,86.837 270.764 C 87.014 270.415,87.213 269.290,87.280 268.265 C 87.346 267.239,87.517 266.400,87.660 266.400 C 87.803 266.400,87.934 265.815,87.950 265.100 C 87.976 263.990,88.385 261.239,88.977 258.200 C 89.063 257.760,89.148 256.984,89.167 256.476 C 89.189 255.849,89.360 255.649,89.700 255.853 C 90.099 256.093,90.100 256.029,89.703 255.540 C 89.430 255.203,89.278 254.853,89.366 254.763 C 89.565 254.559,90.018 252.302,90.281 250.200 C 90.392 249.320,90.644 248.429,90.841 248.220 C 91.038 248.011,91.200 247.249,91.200 246.527 C 91.200 244.997,93.623 242.135,94.493 242.636 C 94.772 242.797,94.878 242.793,94.730 242.627 C 94.379 242.237,96.368 240.000,97.066 240.000 C 97.360 240.000,97.600 239.832,97.600 239.627 C 97.600 239.422,97.974 239.135,98.430 238.990 C 98.887 238.846,99.182 238.649,99.087 238.553 C 98.902 238.369,101.853 235.200,102.210 235.200 C 102.326 235.200,103.002 234.674,103.711 234.030 C 104.420 233.387,105.402 232.514,105.893 232.090 C 106.384 231.666,106.669 231.202,106.526 231.059 C 106.383 230.917,106.473 230.800,106.726 230.800 C 106.979 230.800,107.819 230.185,108.593 229.433 C 109.367 228.682,110.000 228.149,110.000 228.249 C 110.000 228.349,110.251 228.199,110.558 227.916 C 110.865 227.632,111.034 227.265,110.934 227.100 C 110.835 226.935,111.020 226.800,111.347 226.800 C 111.674 226.800,112.315 226.326,112.771 225.746 C 113.227 225.166,113.600 224.812,113.600 224.959 C 113.600 225.106,114.230 224.597,115.000 223.827 C 115.770 223.057,116.403 222.556,116.406 222.713 C 116.409 222.871,116.644 222.550,116.928 222.000 C 117.267 221.344,117.712 221.047,118.222 221.138 C 118.650 221.214,118.868 221.142,118.707 220.979 C 118.328 220.593,119.929 219.202,120.761 219.194 C 121.320 219.189,121.325 219.139,120.800 218.800 C 120.287 218.469,120.302 218.411,120.900 218.406 C 121.285 218.403,121.600 218.209,121.600 217.976 C 121.600 217.743,121.780 217.664,122.000 217.800 C 122.367 218.027,122.578 217.480,122.437 216.670 C 122.406 216.489,122.537 216.438,122.730 216.556 C 122.922 216.675,124.270 215.654,125.725 214.286 C 129.043 211.170,129.731 210.584,129.992 210.662 C 130.106 210.696,130.432 210.471,130.716 210.162 C 130.999 209.853,131.112 209.600,130.967 209.600 C 130.821 209.600,130.924 209.332,131.196 209.004 C 131.468 208.677,131.837 208.499,132.017 208.610 C 132.196 208.721,132.457 208.449,132.598 208.006 C 132.739 207.563,133.112 207.200,133.427 207.200 C 133.742 207.200,134.000 207.009,134.000 206.776 C 134.000 206.543,134.184 206.467,134.410 206.606 C 134.635 206.745,134.770 206.693,134.710 206.489 C 134.649 206.285,135.409 205.439,136.397 204.610 C 137.385 203.780,138.433 202.761,138.724 202.344 C 139.016 201.927,139.422 201.690,139.627 201.817 C 139.832 201.944,140.000 201.767,140.000 201.424 C 140.000 201.081,140.135 200.794,140.300 200.786 C 140.465 200.779,141.590 199.879,142.800 198.787 C 144.010 197.695,145.225 196.801,145.500 196.801 C 145.775 196.800,146.000 196.530,146.000 196.200 C 146.000 195.870,146.150 195.600,146.333 195.600 C 146.517 195.600,147.192 195.065,147.833 194.411 C 148.475 193.757,149.255 193.217,149.567 193.211 C 149.878 193.205,150.019 193.086,149.880 192.947 C 149.588 192.655,151.630 190.950,152.092 191.100 C 152.262 191.155,152.379 191.065,152.353 190.900 C 152.222 190.075,152.459 189.600,153.000 189.600 C 153.330 189.600,153.600 189.409,153.600 189.176 C 153.600 188.943,153.808 188.881,154.062 189.038 C 154.331 189.204,154.416 189.149,154.265 188.906 C 154.123 188.676,154.436 188.206,154.961 187.862 C 155.486 187.518,156.712 186.464,157.685 185.518 C 161.396 181.915,164.088 179.627,164.518 179.712 C 164.763 179.760,164.972 179.530,164.982 179.200 C 164.992 178.870,165.216 178.600,165.480 178.600 C 165.744 178.600,166.194 178.349,166.480 178.041 C 166.912 177.577,166.898 177.540,166.400 177.818 C 165.880 178.109,165.874 178.062,166.357 177.467 C 166.663 177.090,167.006 176.873,167.118 176.985 C 167.231 177.097,167.745 176.617,168.261 175.917 C 168.778 175.217,169.200 174.796,169.200 174.981 C 169.200 175.166,169.650 174.831,170.200 174.238 C 170.750 173.644,171.205 173.303,171.212 173.479 C 171.219 173.656,171.410 173.481,171.637 173.092 C 171.864 172.702,172.246 172.505,172.486 172.653 C 172.739 172.809,172.810 172.740,172.655 172.489 C 172.504 172.245,173.346 171.274,174.573 170.274 C 175.776 169.294,176.671 168.404,176.563 168.296 C 176.455 168.188,177.103 167.736,178.004 167.290 C 178.933 166.830,179.416 166.397,179.120 166.287 C 178.769 166.156,178.860 165.989,179.400 165.774 C 180.310 165.411,182.002 163.602,181.993 163.000 C 181.990 162.780,181.813 162.870,181.600 163.200 C 181.387 163.530,181.210 163.620,181.206 163.400 C 181.202 163.136,168.334 163.019,143.300 163.056 C 122.455 163.086,105.760 163.020,106.200 162.909 C 106.640 162.798,107.090 162.588,107.200 162.441 C 107.310 162.295,108.742 161.371,110.383 160.388 C 114.666 157.821,114.936 157.663,115.600 157.336 C 115.930 157.173,116.560 156.704,117.000 156.293 C 117.440 155.882,118.292 155.446,118.894 155.324 C 119.495 155.202,119.889 154.945,119.770 154.751 C 119.573 154.432,120.139 154.233,120.900 154.353 C 121.065 154.379,121.200 154.209,121.200 153.976 C 121.200 153.743,121.380 153.664,121.600 153.800 C 121.820 153.936,122.000 153.857,122.000 153.624 C 122.000 153.391,122.205 153.200,122.456 153.200 C 122.707 153.200,123.115 152.922,123.364 152.582 C 123.612 152.242,124.209 151.935,124.691 151.898 C 125.172 151.862,125.492 151.759,125.402 151.669 C 125.161 151.428,126.271 150.400,126.771 150.400 C 127.007 150.400,127.200 150.212,127.200 149.982 C 127.200 149.753,127.425 149.601,127.700 149.646 C 128.471 149.770,129.622 149.159,129.374 148.758 C 129.252 148.561,129.523 148.400,129.976 148.400 C 130.429 148.400,130.800 148.249,130.800 148.064 C 130.800 147.694,132.820 146.618,133.303 146.731 C 133.469 146.770,134.176 146.257,134.872 145.591 C 135.569 144.925,136.557 144.276,137.067 144.147 C 137.577 144.019,137.894 143.752,137.771 143.553 C 137.648 143.354,138.096 143.081,138.767 142.947 C 139.438 142.812,139.895 142.554,139.782 142.372 C 139.670 142.189,140.195 141.925,140.949 141.783 C 141.703 141.642,142.697 141.093,143.157 140.563 C 143.903 139.706,144.721 139.387,145.730 139.563 C 145.911 139.594,145.958 139.455,145.833 139.254 C 145.617 138.904,147.891 137.600,148.718 137.600 C 148.936 137.600,149.219 137.327,149.347 136.994 C 149.550 136.464,150.493 135.926,151.800 135.594 C 152.020 135.538,152.435 135.157,152.723 134.746 C 153.010 134.336,153.483 134.000,153.774 134.000 C 154.064 134.000,154.517 133.742,154.779 133.426 C 155.041 133.110,155.784 132.735,156.431 132.593 C 157.078 132.451,157.521 132.195,157.415 132.024 C 157.309 131.853,157.888 131.373,158.701 130.957 C 159.513 130.541,160.539 129.878,160.981 129.485 C 161.423 129.091,162.193 128.666,162.692 128.541 C 163.191 128.416,163.600 128.174,163.600 128.003 C 163.600 127.833,163.915 127.579,164.300 127.440 C 164.685 127.301,165.450 126.923,166.000 126.600 C 167.789 125.548,266.178 125.719,265.614 126.773 M265.087 166.089 C 263.155 168.020,261.400 169.600,261.187 169.600 C 260.974 169.600,260.800 169.791,260.800 170.024 C 260.800 170.257,260.616 170.333,260.390 170.194 C 260.165 170.055,260.006 170.089,260.037 170.270 C 260.181 171.094,259.943 171.522,259.239 171.706 C 258.721 171.841,258.498 172.227,258.539 172.914 C 258.573 173.469,258.709 173.856,258.843 173.773 C 259.219 173.541,261.600 176.673,261.600 177.400 C 261.600 177.756,261.757 177.950,261.949 177.832 C 262.140 177.713,262.725 178.423,263.248 179.408 C 263.771 180.394,264.345 181.200,264.523 181.200 C 264.701 181.200,264.730 181.390,264.587 181.621 C 264.444 181.853,264.731 182.393,265.224 182.821 C 265.718 183.250,265.973 183.600,265.791 183.600 C 265.609 183.600,265.883 184.050,266.400 184.600 C 266.917 185.150,267.196 185.600,267.021 185.600 C 266.845 185.600,266.926 185.870,267.200 186.200 C 267.601 186.684,267.592 186.801,267.149 186.806 C 266.701 186.811,266.697 186.874,267.127 187.146 C 267.416 187.330,267.704 187.732,267.766 188.040 C 268.146 189.922,269.429 190.798,269.429 189.176 C 269.429 188.558,269.235 188.402,268.657 188.553 C 268.077 188.705,267.999 188.641,268.342 188.298 C 268.666 187.974,268.800 184.317,268.800 175.851 C 268.800 165.405,268.883 163.772,269.442 163.153 C 270.036 162.497,270.028 162.448,269.342 162.511 C 268.934 162.548,267.019 164.159,265.087 166.089 M274.146 216.600 C 274.147 218.800,274.214 219.649,274.295 218.487 C 274.376 217.324,274.376 215.524,274.293 214.487 C 274.211 213.449,274.145 214.400,274.146 216.600 " stroke="none" fill="#1cc3e4" fill-rule="evenodd"></path><path id="path1" d="M297.298 134.673 C 297.021 134.780,296.897 135.033,297.021 135.234 C 297.145 135.435,297.042 135.600,296.792 135.600 C 296.404 135.600,290.823 140.715,289.450 142.328 C 289.202 142.619,288.325 143.543,287.500 144.382 C 286.132 145.773,285.426 147.202,286.407 146.596 C 286.630 146.458,286.709 146.177,286.583 145.972 C 286.456 145.768,286.544 145.600,286.778 145.600 C 287.078 145.600,287.174 169.078,287.102 224.966 C 287.024 285.580,287.111 304.240,287.469 303.943 C 287.812 303.658,287.876 303.801,287.708 304.477 C 287.494 305.339,287.558 305.321,288.683 304.200 C 289.345 303.540,290.721 302.280,291.740 301.400 C 292.760 300.520,293.595 299.545,293.597 299.233 C 293.599 298.922,293.702 298.769,293.827 298.894 C 293.952 299.019,294.913 298.239,295.962 297.162 C 297.011 296.085,298.018 295.337,298.199 295.502 C 298.380 295.666,298.414 295.599,298.274 295.353 C 298.133 295.108,298.375 294.585,298.809 294.191 C 299.244 293.798,299.600 293.060,299.600 292.551 C 299.600 291.852,299.763 291.688,300.266 291.881 C 300.752 292.067,300.842 291.992,300.600 291.600 C 300.370 291.227,300.441 291.130,300.834 291.281 C 301.321 291.468,301.400 280.654,301.400 214.182 C 301.400 171.659,301.325 136.942,301.232 137.034 C 300.921 137.345,299.600 135.881,299.600 135.225 C 299.600 134.578,298.325 134.272,297.298 134.673 M284.875 307.216 C 284.394 307.664,284.000 308.146,284.000 308.285 C 284.000 308.425,284.450 308.117,285.000 307.600 C 285.938 306.719,286.171 306.400,285.875 306.400 C 285.807 306.400,285.357 306.767,284.875 307.216 M79.712 345.895 C 80.764 345.977,82.384 345.976,83.312 345.892 C 84.240 345.808,83.380 345.741,81.400 345.742 C 79.420 345.743,78.660 345.812,79.712 345.895 M183.091 345.889 C 183.801 345.977,185.061 345.979,185.891 345.892 C 186.721 345.805,186.140 345.733,184.600 345.731 C 183.060 345.729,182.381 345.800,183.091 345.889 " stroke="none" fill="#0cacdc" fill-rule="evenodd"></path><path id="path2" d="M299.600 135.476 C 299.600 135.950,300.990 137.277,301.232 137.034 C 301.325 136.942,301.357 171.535,301.304 213.907 C 301.227 275.348,301.106 291.013,300.704 291.268 C 300.336 291.501,300.329 291.589,300.677 291.594 C 300.940 291.597,301.406 291.241,301.713 290.803 C 302.020 290.364,302.391 290.124,302.536 290.269 C 302.681 290.414,302.800 290.261,302.800 289.929 C 302.800 289.596,303.156 289.002,303.591 288.609 C 304.025 288.215,304.268 287.709,304.129 287.485 C 303.984 287.251,304.074 287.198,304.338 287.362 C 304.612 287.531,304.800 287.393,304.800 287.024 C 304.800 286.681,304.935 286.445,305.100 286.500 C 305.265 286.555,305.408 286.510,305.418 286.400 C 305.437 286.192,306.616 284.715,307.526 283.758 C 307.815 283.455,307.951 283.044,307.828 282.845 C 307.705 282.646,307.874 282.381,308.202 282.254 C 308.531 282.128,308.800 281.737,308.800 281.384 C 308.800 280.688,309.516 279.828,310.316 279.561 C 310.717 279.428,310.816 266.207,310.805 214.443 C 310.795 169.259,310.920 149.338,311.215 148.982 C 311.510 148.626,311.511 148.392,311.219 148.212 C 310.623 147.843,310.697 147.101,311.300 147.407 C 311.575 147.547,311.394 147.303,310.898 146.865 C 310.262 146.304,310.144 146.002,310.498 145.844 C 310.774 145.721,310.569 145.661,310.042 145.710 C 309.356 145.774,309.049 145.576,308.964 145.011 C 308.898 144.577,308.565 144.017,308.222 143.767 C 307.880 143.517,307.600 143.195,307.600 143.053 C 307.600 142.788,302.102 137.204,300.496 135.838 C 300.003 135.419,299.600 135.256,299.600 135.476 M299.600 292.189 C 299.600 292.987,300.274 293.306,300.533 292.631 C 300.652 292.320,300.491 291.967,300.175 291.846 C 299.843 291.718,299.600 291.863,299.600 292.189 " stroke="none" fill="#0ca4dc" fill-rule="evenodd"></path><path id="path3" d="M134.329 54.700 C 142.100 54.761,154.700 54.761,162.329 54.700 C 169.958 54.639,163.600 54.589,148.200 54.589 C 132.800 54.589,126.558 54.639,134.329 54.700 M302.800 137.763 C 302.800 137.853,303.605 138.755,304.589 139.767 C 305.573 140.780,306.263 141.291,306.122 140.904 C 305.723 139.806,302.800 137.043,302.800 137.763 M307.600 142.994 C 307.600 143.169,307.880 143.517,308.222 143.767 C 308.565 144.017,308.891 144.537,308.947 144.922 C 309.053 145.640,309.698 145.921,309.883 145.330 C 310.014 144.914,309.641 144.404,308.500 143.438 C 308.005 143.019,307.600 142.819,307.600 142.994 M310.777 147.668 C 311.335 148.266,311.463 148.683,311.190 149.012 C 310.657 149.655,310.659 278.666,311.193 278.996 C 311.404 279.126,311.688 278.788,311.824 278.245 C 311.961 277.702,312.326 277.161,312.636 277.041 C 312.946 276.922,313.200 276.526,313.200 276.159 C 313.200 275.793,313.534 275.203,313.943 274.847 C 314.351 274.491,314.827 273.750,315.000 273.200 C 315.173 272.650,315.637 271.919,316.030 271.576 C 316.424 271.233,316.868 270.468,317.017 269.876 C 317.165 269.284,317.458 268.800,317.667 268.800 C 317.876 268.800,317.949 268.640,317.828 268.445 C 317.707 268.250,317.872 267.872,318.194 267.605 C 318.516 267.338,318.893 266.509,319.033 265.763 C 319.173 265.017,319.433 264.497,319.611 264.607 C 319.789 264.717,320.054 264.265,320.199 263.603 C 320.345 262.942,320.629 262.400,320.832 262.400 C 321.034 262.400,321.200 262.040,321.200 261.600 C 321.200 261.160,321.366 260.800,321.568 260.800 C 321.771 260.800,322.055 260.260,322.200 259.600 C 322.345 258.940,322.629 258.400,322.832 258.400 C 323.034 258.400,323.200 257.961,323.200 257.424 C 323.200 256.887,323.360 256.349,323.555 256.228 C 323.750 256.107,324.028 255.377,324.173 254.604 C 324.318 253.832,324.608 253.200,324.818 253.200 C 325.028 253.200,325.200 252.862,325.200 252.449 C 325.200 252.036,325.470 251.051,325.800 250.262 C 326.130 249.472,326.400 248.280,326.400 247.613 C 326.400 246.946,326.569 246.400,326.776 246.400 C 326.982 246.400,327.276 245.140,327.427 243.600 C 327.579 242.060,327.860 240.800,328.052 240.800 C 328.243 240.800,328.400 240.091,328.400 239.224 C 328.400 238.357,328.560 237.548,328.756 237.427 C 328.952 237.306,329.242 235.226,329.400 232.804 C 329.558 230.382,329.825 228.400,329.993 228.400 C 330.161 228.400,330.331 226.645,330.370 224.500 C 330.410 222.355,330.613 220.429,330.821 220.220 C 331.341 219.698,331.321 202.122,330.800 201.800 C 330.580 201.664,330.400 200.044,330.400 198.200 C 330.400 196.356,330.247 194.753,330.060 194.637 C 329.873 194.521,329.597 192.666,329.446 190.513 C 329.296 188.361,328.999 186.540,328.786 186.467 C 328.574 186.393,328.400 185.628,328.400 184.767 C 328.400 183.905,328.234 183.200,328.032 183.200 C 327.829 183.200,327.538 182.030,327.385 180.600 C 327.232 179.170,326.968 178.000,326.799 178.000 C 326.629 178.000,326.370 177.194,326.222 176.209 C 326.075 175.224,325.784 174.314,325.577 174.186 C 325.370 174.058,325.200 173.513,325.200 172.976 C 325.200 172.439,325.040 172.000,324.845 172.000 C 324.650 172.000,324.369 171.190,324.221 170.200 C 324.072 169.210,323.782 168.400,323.575 168.400 C 323.369 168.400,323.200 168.117,323.200 167.771 C 323.200 167.426,322.930 166.873,322.600 166.543 C 322.270 166.213,322.000 165.416,322.000 164.771 C 322.000 164.127,321.820 163.600,321.600 163.600 C 321.380 163.600,321.200 163.330,321.200 163.000 C 321.200 162.670,321.028 162.400,320.818 162.400 C 320.608 162.400,320.318 161.770,320.174 161.000 C 320.029 160.230,319.786 159.600,319.632 159.600 C 319.479 159.600,319.035 158.878,318.646 157.996 C 318.257 157.113,317.772 156.494,317.569 156.619 C 317.366 156.745,317.200 156.487,317.200 156.047 C 317.200 155.607,317.017 155.134,316.793 154.996 C 316.570 154.858,316.470 154.610,316.572 154.445 C 316.674 154.280,316.407 153.893,315.979 153.585 C 315.550 153.276,315.200 152.836,315.200 152.608 C 315.200 152.379,314.825 151.958,314.367 151.672 C 313.894 151.377,313.629 150.902,313.754 150.576 C 313.875 150.259,313.749 150.000,313.473 150.000 C 313.196 150.000,312.943 149.638,312.910 149.196 C 312.835 148.207,311.750 147.072,310.729 146.916 C 310.002 146.805,310.004 146.838,310.777 147.668 M309.300 280.198 C 309.025 280.511,308.800 281.049,308.800 281.396 C 308.800 281.742,308.531 282.128,308.202 282.254 C 307.874 282.381,307.704 282.645,307.826 282.842 C 308.178 283.412,308.800 283.257,308.800 282.600 C 308.800 282.270,308.999 282.000,309.243 282.000 C 309.486 282.000,309.578 281.721,309.447 281.379 C 309.311 281.023,309.378 280.863,309.605 281.003 C 309.822 281.137,310.000 280.956,310.000 280.600 C 310.000 280.244,310.180 280.064,310.400 280.200 C 310.620 280.336,310.800 280.257,310.800 280.024 C 310.800 279.421,309.891 279.527,309.300 280.198 M303.483 288.812 C 303.111 289.245,302.964 289.600,303.155 289.600 C 303.595 289.600,304.574 288.441,304.336 288.202 C 304.238 288.104,303.854 288.379,303.483 288.812 " stroke="none" fill="#049cd4" fill-rule="evenodd"></path><path id="path4" d="M175.225 64.200 C 174.802 66.210,174.801 66.559,175.222 66.138 C 175.467 65.893,175.587 65.267,175.488 64.746 C 175.390 64.226,175.271 63.980,175.225 64.200 M268.100 120.832 C 268.702 121.183,268.800 121.880,268.800 125.820 C 268.800 129.211,268.930 130.403,269.300 130.412 C 269.575 130.419,269.481 130.610,269.092 130.837 C 268.702 131.064,268.488 131.419,268.617 131.628 C 268.746 131.836,268.561 132.296,268.206 132.651 C 267.852 133.005,267.665 133.398,267.790 133.523 C 267.916 133.649,268.265 133.403,268.567 132.976 C 269.125 132.186,272.400 128.769,272.400 128.976 C 272.400 129.039,273.930 127.584,275.800 125.743 C 277.670 123.903,279.200 122.217,279.200 121.998 C 279.200 121.779,279.515 121.594,279.900 121.587 C 280.533 121.576,280.526 121.519,279.824 120.987 C 279.221 120.532,277.739 120.403,273.224 120.412 C 269.072 120.421,267.601 120.541,268.100 120.832 M191.500 126.300 C 205.195 126.358,227.605 126.358,241.300 126.300 C 254.995 126.242,243.790 126.194,216.400 126.194 C 189.010 126.194,177.805 126.242,191.500 126.300 M265.478 135.413 C 264.860 135.956,264.514 136.400,264.708 136.400 C 264.902 136.400,265.483 135.950,266.000 135.400 C 267.195 134.128,266.931 134.134,265.478 135.413 M262.846 138.100 L 261.942 139.400 262.930 138.326 C 263.473 137.735,264.026 137.360,264.159 137.492 C 264.291 137.625,264.400 137.523,264.400 137.267 C 264.400 136.434,263.771 136.771,262.846 138.100 M286.447 145.900 C 286.566 146.651,286.357 146.952,286.051 146.469 C 285.801 146.074,285.141 146.504,283.458 148.161 C 282.216 149.383,281.200 150.338,281.200 150.284 C 281.200 150.230,278.410 152.918,275.000 156.257 C 268.765 162.361,268.214 162.989,269.500 162.520 C 270.165 162.277,270.165 162.304,269.506 163.057 C 268.885 163.766,268.801 165.135,268.706 176.025 C 268.620 185.876,268.499 188.179,268.070 188.090 C 267.779 188.030,267.644 188.148,267.771 188.353 C 267.897 188.557,268.322 188.641,268.715 188.538 C 269.229 188.404,269.429 188.582,269.429 189.176 C 269.429 189.629,269.212 190.000,268.946 190.000 C 268.595 190.000,268.637 190.439,269.099 191.616 C 269.493 192.619,269.845 193.051,270.027 192.757 C 270.188 192.496,270.320 192.920,270.320 193.700 C 270.320 195.643,270.755 196.869,271.329 196.547 C 271.644 196.370,271.634 196.461,271.300 196.821 C 270.727 197.439,270.624 198.156,271.155 197.828 C 271.500 197.615,271.816 198.708,272.246 201.600 C 272.361 202.370,272.557 203.270,272.681 203.600 C 272.806 203.930,272.903 204.830,272.898 205.600 C 272.892 206.370,273.055 207.206,273.259 207.459 C 273.651 207.944,273.464 224.747,273.039 227.200 C 272.906 227.970,272.685 229.545,272.548 230.700 C 272.410 231.855,272.141 232.800,271.949 232.800 C 271.757 232.800,271.600 233.081,271.600 233.424 C 271.600 233.767,271.775 233.939,271.990 233.806 C 272.204 233.674,271.936 234.518,271.393 235.683 C 270.851 236.847,270.406 238.169,270.404 238.620 C 270.402 239.071,270.177 239.663,269.903 239.937 C 269.508 240.332,269.528 240.510,270.003 240.811 C 270.465 241.102,270.477 241.189,270.057 241.194 C 269.749 241.197,269.610 241.450,269.737 241.780 C 269.888 242.172,269.767 242.286,269.363 242.131 C 269.035 242.005,268.803 242.059,268.847 242.251 C 268.891 242.443,268.791 242.909,268.626 243.287 C 268.460 243.665,268.417 244.205,268.531 244.487 C 268.644 244.769,268.764 244.550,268.797 244.000 C 268.851 243.083,268.884 243.067,269.185 243.800 C 269.428 244.392,269.291 244.791,268.657 245.335 C 268.186 245.739,268.025 245.953,268.300 245.811 C 268.698 245.605,268.800 252.926,268.800 281.776 C 268.800 320.161,268.753 319.190,270.519 317.424 C 270.845 317.097,271.465 316.944,271.948 317.070 C 272.442 317.200,272.800 317.106,272.800 316.847 C 272.800 316.601,272.978 316.400,273.195 316.400 C 273.413 316.400,273.908 316.129,274.295 315.797 C 274.683 315.465,275.180 315.155,275.400 315.107 C 275.620 315.060,276.160 314.712,276.600 314.335 C 277.040 313.957,277.850 313.262,278.400 312.790 C 278.950 312.318,279.926 311.542,280.568 311.066 C 281.211 310.590,282.392 309.570,283.194 308.800 C 285.391 306.691,286.241 306.043,285.818 306.800 C 285.565 307.253,285.600 307.292,285.962 306.960 C 286.225 306.717,286.468 306.152,286.502 305.704 C 286.536 305.255,286.773 304.968,287.029 305.067 C 287.285 305.165,287.594 304.865,287.716 304.400 C 287.877 303.784,287.810 303.660,287.469 303.943 C 287.111 304.240,287.024 285.580,287.102 224.966 C 287.170 171.995,287.070 145.600,286.802 145.600 C 286.581 145.600,286.421 145.735,286.447 145.900 M101.849 157.015 C 101.712 157.373,101.615 157.966,101.634 158.333 C 101.653 158.700,101.827 158.469,102.021 157.820 C 102.398 156.558,102.265 155.933,101.849 157.015 M124.300 163.100 C 134.695 163.159,151.705 163.159,162.100 163.100 C 172.495 163.041,163.990 162.992,143.200 162.992 C 122.410 162.992,113.905 163.041,124.300 163.100 M236.062 164.040 C 235.326 164.709,234.798 165.331,234.889 165.422 C 234.980 165.514,235.663 164.961,236.406 164.194 C 238.066 162.481,237.872 162.394,236.062 164.040 M100.846 163.667 C 100.821 164.034,100.696 164.664,100.570 165.067 C 100.352 165.762,100.363 165.763,100.797 165.087 C 101.048 164.696,101.173 164.066,101.073 163.687 C 100.911 163.068,100.888 163.066,100.846 163.667 M172.975 171.700 L 171.800 173.000 173.198 171.800 C 173.967 171.140,174.672 170.555,174.765 170.500 C 174.857 170.445,174.757 170.400,174.542 170.400 C 174.326 170.400,173.621 170.985,172.975 171.700 M218.473 172.850 C 217.523 173.746,216.811 174.544,216.891 174.624 C 216.970 174.704,217.898 173.966,218.951 172.984 C 220.005 172.003,220.717 171.205,220.534 171.210 C 220.350 171.216,219.423 171.953,218.473 172.850 M163.500 173.632 C 163.115 173.856,162.803 174.256,162.806 174.520 C 162.810 174.852,162.903 174.866,163.106 174.566 C 163.268 174.327,163.760 173.927,164.200 173.678 C 164.640 173.428,164.820 173.224,164.600 173.224 C 164.380 173.224,163.885 173.408,163.500 173.632 M266.275 185.164 C 266.391 185.609,266.782 186.205,267.143 186.487 C 267.715 186.933,267.736 186.917,267.303 186.363 C 267.030 186.013,266.900 185.634,267.013 185.520 C 267.127 185.407,266.959 185.098,266.641 184.834 C 266.163 184.437,266.100 184.495,266.275 185.164 M212.370 187.053 C 211.445 188.056,211.441 188.080,212.292 187.561 C 212.783 187.262,213.272 186.788,213.380 186.509 C 213.666 185.762,213.452 185.877,212.370 187.053 M140.998 194.002 C 140.598 194.444,140.366 194.899,140.482 195.015 C 140.597 195.130,140.990 194.769,141.355 194.212 C 142.152 192.996,141.993 192.902,140.998 194.002 M204.843 194.423 C 204.317 194.861,203.971 195.305,204.075 195.408 C 204.179 195.512,204.686 195.148,205.201 194.598 C 206.324 193.404,206.162 193.325,204.843 194.423 M137.906 196.852 C 137.188 197.541,136.958 197.856,137.395 197.552 C 138.584 196.726,139.788 195.600,139.482 195.600 C 139.334 195.600,138.625 196.163,137.906 196.852 M141.262 200.040 C 140.526 200.709,139.998 201.331,140.089 201.422 C 140.180 201.514,140.863 200.961,141.606 200.194 C 143.266 198.481,143.072 198.394,141.262 200.040 M188.618 202.218 C 187.183 203.654,187.345 203.994,188.800 202.600 C 189.460 201.968,190.000 201.394,190.000 201.325 C 190.000 200.996,189.548 201.288,188.618 202.218 M181.600 209.200 C 181.093 209.640,180.857 210.000,181.077 210.000 C 181.296 210.000,181.802 209.640,182.200 209.200 C 182.598 208.760,182.834 208.400,182.723 208.400 C 182.613 208.400,182.107 208.760,181.600 209.200 M178.975 211.699 L 177.800 212.997 179.000 212.005 C 179.660 211.459,180.371 210.874,180.580 210.706 C 180.816 210.516,180.806 210.400,180.555 210.400 C 180.332 210.400,179.621 210.984,178.975 211.699 M274.295 218.487 C 274.214 219.649,274.147 218.800,274.146 216.600 C 274.145 214.400,274.211 213.449,274.293 214.487 C 274.376 215.524,274.376 217.324,274.295 218.487 M168.678 221.813 C 168.060 222.356,167.714 222.800,167.908 222.800 C 168.102 222.800,168.683 222.350,169.200 221.800 C 170.395 220.528,170.131 220.534,168.678 221.813 M104.678 226.613 C 104.060 227.156,103.714 227.600,103.908 227.600 C 104.102 227.600,104.683 227.150,105.200 226.600 C 106.395 225.328,106.131 225.334,104.678 226.613 M162.575 228.100 L 161.400 229.400 162.700 228.225 C 163.912 227.130,164.184 226.800,163.875 226.800 C 163.806 226.800,163.221 227.385,162.575 228.100 M95.862 240.731 C 95.498 241.134,95.200 241.611,95.200 241.793 C 95.200 241.974,95.560 241.707,96.000 241.200 C 96.440 240.693,96.800 240.215,96.800 240.139 C 96.800 239.839,96.495 240.032,95.862 240.731 M138.663 251.200 C 138.075 251.860,137.741 252.400,137.922 252.400 C 138.102 252.400,138.649 251.860,139.137 251.200 C 139.625 250.540,139.958 250.000,139.878 250.000 C 139.798 250.000,139.251 250.540,138.663 251.200 M89.502 254.200 C 89.397 254.750,89.466 255.200,89.655 255.200 C 89.845 255.200,90.000 254.750,90.000 254.200 C 90.000 253.650,89.931 253.200,89.847 253.200 C 89.762 253.200,89.607 253.650,89.502 254.200 M82.086 269.641 C 82.045 271.104,82.270 271.031,82.549 269.491 C 82.658 268.891,82.606 268.400,82.434 268.400 C 82.262 268.400,82.106 268.958,82.086 269.641 M80.200 280.000 C 80.050 280.473,80.017 280.950,80.127 281.060 C 80.237 281.170,80.450 280.873,80.600 280.400 C 80.750 279.927,80.783 279.450,80.673 279.340 C 80.563 279.230,80.350 279.527,80.200 280.000 M84.449 283.000 C 84.416 283.440,84.296 284.250,84.183 284.800 L 83.977 285.800 84.406 284.819 C 84.642 284.279,84.761 283.469,84.672 283.019 C 84.513 282.221,84.507 282.221,84.449 283.000 M134.366 304.526 C 134.547 304.707,135.393 304.793,136.247 304.719 L 137.800 304.583 135.919 304.390 C 134.884 304.284,134.185 304.345,134.366 304.526 M173.200 304.500 C 173.200 304.665,173.830 304.800,174.600 304.800 C 175.370 304.800,176.000 304.665,176.000 304.500 C 176.000 304.335,175.370 304.200,174.600 304.200 C 173.830 304.200,173.200 304.335,173.200 304.500 M79.646 309.667 C 79.621 310.034,79.496 310.664,79.370 311.067 C 79.152 311.762,79.163 311.763,79.597 311.087 C 79.848 310.696,79.973 310.066,79.873 309.687 C 79.711 309.068,79.688 309.066,79.646 309.667 M268.000 318.824 C 268.000 319.057,268.165 319.145,268.366 319.021 C 268.567 318.897,268.804 319.012,268.892 319.277 C 268.994 319.582,269.149 319.509,269.314 319.080 C 269.505 318.582,269.364 318.400,268.787 318.400 C 268.354 318.400,268.000 318.591,268.000 318.824 M261.325 323.900 C 260.906 324.285,260.767 324.467,261.018 324.303 C 261.269 324.140,261.547 324.077,261.637 324.163 C 261.727 324.249,262.032 324.067,262.316 323.760 C 263.060 322.952,262.231 323.070,261.325 323.900 M136.400 346.000 L 131.000 346.236 136.500 346.318 C 139.955 346.369,142.000 346.251,142.000 346.000 C 142.000 345.780,141.955 345.637,141.900 345.682 C 141.845 345.727,139.370 345.870,136.400 346.000 " stroke="none" fill="#14b4dc" fill-rule="evenodd"></path></g></svg>